<svg xmlns="http://www.w3.org/2000/svg" viewBox="0 0 192 192" role="img" aria-labelledby="title desc">
  <title id="title">Festival Cafe POS icon</title>
  <desc id="desc">Simplified cup with steam for the school cafe point of sale</desc>
  <rect width="192" height="192" rx="32" fill="#2563eb"/>
  <g fill="#ffffff">
    <path d="M52 64h84v46a26 26 0 0 1-26 26H78a26 26 0 0 1-26-26z"/>
    <path d="M136 72h10a18 18 0 0 1 0 36h-10v-10h10a8 8 0 0 0 0-16h-10z"/>
    <path d="M64 52c0-8 6-12 6-20s-6-12-6-20h10c0 8 6 12 6 20s-6 12-6 20zm32 0c0-8 6-12 6-20s-6-12-6-20h10c0 8 6 12 6 20s-6 12-6 20z"/>
  </g>
  <path d="M54 128h84v12a8 8 0 0 1-8 8H62a8 8 0 0 1-8-8z" fill="#1d4ed8"/>
</svg>
